<svg id="visual" viewBox="0 0 960 540" width="960" height="540" xmlns="http://www.w3.org/2000/svg" xmlns:xlink="http://www.w3.org/1999/xlink" version="1.1"><path d="M0 253L12.3 249C24.7 245 49.3 237 74 246.7C98.7 256.3 123.3 283.7 148 282.5C172.7 281.3 197.3 251.7 221.8 245.7C246.3 239.7 270.7 257.3 295.2 265.2C319.7 273 344.3 271 369 266C393.7 261 418.3 253 443 244.2C467.7 235.3 492.3 225.7 517 237.3C541.7 249 566.3 282 591 298.8C615.7 315.7 640.3 316.3 664.8 302C689.3 287.7 713.7 258.3 738.2 244.7C762.7 231 787.3 233 812 242.3C836.7 251.7 861.3 268.3 886 271.2C910.7 274 935.3 263 947.7 257.5L960 252L960 0L947.7 0C935.3 0 910.7 0 886 0C861.3 0 836.7 0 812 0C787.3 0 762.7 0 738.2 0C713.7 0 689.3 0 664.8 0C640.3 0 615.7 0 591 0C566.3 0 541.7 0 517 0C492.3 0 467.7 0 443 0C418.3 0 393.7 0 369 0C344.3 0 319.7 0 295.2 0C270.7 0 246.3 0 221.8 0C197.3 0 172.7 0 148 0C123.3 0 98.7 0 74 0C49.3 0 24.7 0 12.3 0L0 0Z" fill="#27374D" stroke-linecap="round" stroke-linejoin="miter"></path></svg>